<?xml version="1.0" encoding="us-ascii" standalone="no"?><svg xmlns="http://www.w3.org/2000/svg" xmlns:xlink="http://www.w3.org/1999/xlink" contentStyleType="text/css" height="228px" preserveAspectRatio="none" style="width:1463px;height:228px;background:#FFFFFF;" version="1.1" viewBox="0 0 1463 228" width="1463px" zoomAndPan="magnify"><defs/><g><!--entity Client--><g id="elem_Client"><ellipse cx="756.5" cy="14" fill="#F1F1F1" rx="8" ry="8" style="stroke:#181818;stroke-width:0.5;"/><path d="M756.5,22 L756.5,49 M743.5,30 L769.5,30 M756.5,49 L743.5,64 M756.5,49 L769.5,64 " fill="none" style="stroke:#181818;stroke-width:0.5;"/><text fill="#000000" font-family="sans-serif" font-size="14" lengthAdjust="spacing" textLength="112" x="700.5" y="80.0332">Utilisateur (Client)</text></g><g id="elem_S'authentifier"><ellipse cx="74.4277" cy="192.0855" fill="#F1F1F1" rx="68.4277" ry="16.0855" style="stroke:#181818;stroke-width:0.5;"/><text fill="#000000" font-family="sans-serif" font-size="14" lengthAdjust="spacing" textLength="83" x="29.9277" y="196.6021">S'authentifier</text></g><g id="elem_Consulter les statistiques"><ellipse cx="333.7239" cy="192.1448" fill="#F1F1F1" rx="98.7239" ry="22.1448" style="stroke:#181818;stroke-width:0.5;"/><text fill="#000000" font-family="sans-serif" font-size="14" lengthAdjust="spacing" textLength="158" x="254.7239" y="195.8733">Consulter les statistiques</text></g><g id="elem_Rechercher un produit ou un commerce"><ellipse cx="608.6734" cy="192.2347" fill="#F1F1F1" rx="141.6734" ry="30.7347" style="stroke:#181818;stroke-width:0.5;"/><text fill="#000000" font-family="sans-serif" font-size="14" lengthAdjust="spacing" textLength="251" x="483.1734" y="195.9632">Rechercher un produit ou un commerce</text></g><g id="elem_Consulter les d&#233;tails d&#8217;un produit"><ellipse cx="906.5183" cy="192.1037" fill="#F1F1F1" rx="121.0183" ry="26.6037" style="stroke:#181818;stroke-width:0.5;"/><text fill="#000000" font-family="sans-serif" font-size="14" lengthAdjust="spacing" textLength="207" x="803.0183" y="195.8322">Consulter les d&#233;tails d&#8217;un produit</text></g><g id="elem_G&#233;n&#233;rer un rapport"><ellipse cx="1146.5873" cy="192.1175" fill="#F1F1F1" rx="83.5873" ry="19.1175" style="stroke:#181818;stroke-width:0.5;"/><text fill="#000000" font-family="sans-serif" font-size="14" lengthAdjust="spacing" textLength="123" x="1085.0873" y="195.846">G&#233;n&#233;rer un rapport</text></g><g id="elem_Sugg&#233;rer des strat&#233;gies"><ellipse cx="1361.5702" cy="192.114" fill="#F1F1F1" rx="96.0702" ry="21.614" style="stroke:#181818;stroke-width:0.5;"/><text fill="#000000" font-family="sans-serif" font-size="14" lengthAdjust="spacing" textLength="152" x="1285.5702" y="195.8426">Sugg&#233;rer des strat&#233;gies</text></g><!--link Client to S'authentifier--><g id="link_Client_S'authentifier"><path d="M700.44,45.17 C599.4,46.15 381.18,55.53 208.5,113.5 C164.42,128.3 123.5874,154.9816 98.5874,173.0016 " fill="none" id="Client-to-S'authentifier" style="stroke:#181818;stroke-width:1.0;"/><polygon fill="#181818" points="93.72,176.51,103.36,174.4923,97.7761,173.5863,98.6821,168.0025,93.72,176.51" style="stroke:#181818;stroke-width:1.0;"/></g><!--link Client to Consulter les statistiques--><g id="link_Client_Consulter les statistiques"><path d="M700.38,48.52 C569.7,56.11 253.77,77.99 222.5,113.5 C200.13,138.9 232.4209,158.1633 269.8809,171.9833 " fill="none" id="Client-to-Consulter les statistiques" style="stroke:#181818;stroke-width:1.0;"/><polygon fill="#181818" points="275.51,174.06,268.4508,167.1921,270.8191,172.3294,265.6818,174.6976,275.51,174.06" style="stroke:#181818;stroke-width:1.0;"/></g><!--link Client to Rechercher un produit ou un commerce--><g id="link_Client_Rechercher un produit ou un commerce"><path d="M717.61,83.73 C692.78,108.15 665.349,135.1141 642.519,157.5541 " fill="none" id="Client-to-Rechercher un produit ou un commerce" style="stroke:#181818;stroke-width:1.0;"/><polygon fill="#181818" points="638.24,161.76,647.4625,158.3038,641.8059,158.2551,641.8546,152.5984,638.24,161.76" style="stroke:#181818;stroke-width:1.0;"/></g><!--link Client to Consulter les d?tails d?un produit--><g id="link_Client_Consulter les d&#233;tails d&#8217;un produit"><path d="M795.91,83.73 C822.65,109.66 852.9232,139.0325 876.2432,161.6525 " fill="none" id="Client-to-Consulter les d&#233;tails d&#8217;un produit" style="stroke:#181818;stroke-width:1.0;"/><polygon fill="#181818" points="880.55,165.83,876.8748,156.6925,876.961,162.3487,871.3048,162.4349,880.55,165.83" style="stroke:#181818;stroke-width:1.0;"/></g><!--link Client to G?n?rer un rapport--><g id="link_Client_G&#233;n&#233;rer un rapport"><path d="M812.79,66.5 C892,96.05 1028.8985,147.1227 1099.2585,173.3727 " fill="none" id="Client-to-G&#233;n&#233;rer un rapport" style="stroke:#181818;stroke-width:1.0;"/><polygon fill="#181818" points="1104.88,175.47,1097.8459,168.5764,1100.1954,173.7223,1095.0495,176.0718,1104.88,175.47" style="stroke:#181818;stroke-width:1.0;"/></g><!--link Client to Sugg?rer des strat?gies--><g id="link_Client_Sugg&#233;rer des strat&#233;gies"><path d="M812.56,58.34 C903.83,79.33 1090.2,122.57 1247.5,161.5 C1264.96,165.82 1278.0812,169.1575 1295.4012,173.6375 " fill="none" id="Client-to-Sugg&#233;rer des strat&#233;gies" style="stroke:#181818;stroke-width:1.0;"/><polygon fill="#181818" points="1301.21,175.14,1293.4984,169.0137,1296.3693,173.8879,1291.4951,176.7588,1301.21,175.14" style="stroke:#181818;stroke-width:1.0;"/></g><!--link S'authentifier to Consulter les statistiques--><g id="link_S'authentifier_Consulter les statistiques"><path d="M143.23,192 C171.25,192 198.19,192 228.71,192 " fill="none" id="S'authentifier-to-Consulter les statistiques" style="stroke:#181818;stroke-width:1.0;stroke-dasharray:7.0,7.0;"/><polygon fill="#181818" points="234.71,192,225.71,188,229.71,192,225.71,196,234.71,192" style="stroke:#181818;stroke-width:1.0;"/><text fill="#000000" font-family="sans-serif" font-size="13" lengthAdjust="spacing" textLength="55" x="161.5" y="185.4951">&#171;include&#187;</text></g><!--link S'authentifier to Rechercher un produit ou un commerce--><g id="link_S'authentifier_Rechercher un produit ou un commerce"><path d="M107.03,177.79 C174.56,150.19 334.65,94.55 467,124.5 C500.32,132.04 529.7174,145.51 556.3974,160.24 " fill="none" id="S'authentifier-to-Rechercher un produit ou un commerce" style="stroke:#181818;stroke-width:1.0;stroke-dasharray:7.0,7.0;"/><polygon fill="#181818" points="561.65,163.14,555.7044,155.2883,557.2728,160.7234,551.8377,162.2918,561.65,163.14" style="stroke:#181818;stroke-width:1.0;"/><text fill="#000000" font-family="sans-serif" font-size="13" lengthAdjust="spacing" textLength="55" x="411" y="127.9951">&#171;include&#187;</text></g><!--link S'authentifier to Consulter les d?tails d?un produit--><g id="link_S'authentifier_Consulter les d&#233;tails d&#8217;un produit"><path d="M99.03,176.98 C127.76,160.34 177.37,134.54 224,124.5 C249.85,118.93 530.59,126.67 767.5,161.5 C786.44,164.28 800.7935,166.9213 819.7635,170.9913 " fill="none" id="S'authentifier-to-Consulter les d&#233;tails d&#8217;un produit" style="stroke:#181818;stroke-width:1.0;stroke-dasharray:7.0,7.0;"/><polygon fill="#181818" points="825.63,172.25,817.6694,166.451,820.7413,171.2011,815.9912,174.273,825.63,172.25" style="stroke:#181818;stroke-width:1.0;"/><text fill="#000000" font-family="sans-serif" font-size="13" lengthAdjust="spacing" textLength="55" x="225" y="127.9951">&#171;include&#187;</text></g><!--link S'authentifier to G?n?rer un rapport--><g id="link_S'authentifier_G&#233;n&#233;rer un rapport"><path d="M107.79,177.82 C148.81,161.2 221.07,134.61 286,124.5 C452.75,98.54 878.22,132.68 1044.5,161.5 C1063.44,164.78 1078.1098,168.619 1095.6398,174.169 " fill="none" id="S'authentifier-to-G&#233;n&#233;rer un rapport" style="stroke:#181818;stroke-width:1.0;stroke-dasharray:7.0,7.0;"/><polygon fill="#181818" points="1101.36,175.98,1093.9871,169.4501,1096.5932,174.4708,1091.5724,177.0769,1101.36,175.98" style="stroke:#181818;stroke-width:1.0;"/><text fill="#000000" font-family="sans-serif" font-size="13" lengthAdjust="spacing" textLength="55" x="287" y="127.9951">&#171;include&#187;</text></g><!--link S'authentifier to Sugg?rer des strat?gies--><g id="link_S'authentifier_Sugg&#233;rer des strat&#233;gies"><path d="M114.25,178.96 C166.98,162.42 263.28,134.8 348,124.5 C546.6,100.36 1049.77,131.08 1247.5,161.5 C1266.64,164.44 1281.3954,167.7769 1299.6954,172.8169 " fill="none" id="S'authentifier-to-Sugg&#233;rer des strat&#233;gies" style="stroke:#181818;stroke-width:1.0;stroke-dasharray:7.0,7.0;"/><polygon fill="#181818" points="1305.48,174.41,1297.8652,168.1639,1300.6595,173.0824,1295.741,175.8767,1305.48,174.41" style="stroke:#181818;stroke-width:1.0;"/><text fill="#000000" font-family="sans-serif" font-size="13" lengthAdjust="spacing" textLength="55" x="349" y="127.9951">&#171;include&#187;</text></g><!--SRC=[ZL2n3S903EmpXKL3A600XDAae0Snm2inYQNdF_ZjdZKO8NDa4oOX8GLA1D4NhxVbkxFlJ26UONKHiXICe3AakILqibc12J3MIJB-iDrca9xNHgNkMxeIycOooxqBQWKPB0O8OeI2q5qnJ74dB6hauO4wQDYNIW9UXwxmjri_moNbicl5aEsBr-FvLPXIZbthkfR77MoQnlCCSTQg6X7bvrmsqhKL3TScSv-mM_O7UpWSo1LMIyoot_Gesp52SMd4AFqCAORuFxiP-mq0]--></g></svg>