<?xml version="1.0" encoding="us-ascii" standalone="no"?><svg xmlns="http://www.w3.org/2000/svg" xmlns:xlink="http://www.w3.org/1999/xlink" contentStyleType="text/css" height="506px" preserveAspectRatio="none" style="width:538px;height:506px;background:#FFFFFF;" version="1.1" viewBox="0 0 538 506" width="538px" zoomAndPan="magnify"><defs/><g><!--class Utilisateur--><g id="elem_Utilisateur"><rect codeLine="1" fill="#F1F1F1" height="136.0469" id="Utilisateur" rx="2.5" ry="2.5" style="stroke:#181818;stroke-width:0.5;" width="117" x="9.5" y="7"/><ellipse cx="34.85" cy="23" fill="#ADD1B2" rx="11" ry="11" style="stroke:#181818;stroke-width:1.0;"/><path d="M37.6156,18.875 Q37.7719,18.6563 37.9594,18.5469 Q38.1469,18.4375 38.3656,18.4375 Q38.7406,18.4375 38.975,18.7031 Q39.2094,18.9531 39.2094,19.5625 L39.2094,21.0156 Q39.2094,21.625 38.975,21.8906 Q38.7406,22.1563 38.3656,22.1563 Q38.0219,22.1563 37.8188,21.9531 Q37.6156,21.7656 37.5063,21.25 Q37.4594,20.8906 37.2719,20.7031 Q36.9438,20.3281 36.3344,20.1094 Q35.725,19.8906 35.1,19.8906 Q34.3344,19.8906 33.6938,20.2188 Q33.0688,20.5469 32.5688,21.2969 Q32.0844,22.0469 32.0844,23.0781 L32.0844,24.1719 Q32.0844,25.4063 32.975,26.2344 Q33.8656,27.0469 35.4594,27.0469 Q36.3969,27.0469 37.0531,26.7969 Q37.4438,26.6406 37.8656,26.2031 Q38.1313,25.9375 38.2719,25.8594 Q38.4281,25.7813 38.6313,25.7813 Q38.9594,25.7813 39.2094,26.0469 Q39.475,26.2969 39.475,26.6406 Q39.475,26.9844 39.1313,27.3906 Q38.6313,27.9688 37.8344,28.2969 Q36.7563,28.75 35.4594,28.75 Q33.9438,28.75 32.7406,28.125 Q31.7563,27.625 31.0688,26.5625 Q30.3813,25.4844 30.3813,24.2031 L30.3813,23.0469 Q30.3813,21.7188 30.9906,20.5781 Q31.6156,19.4219 32.7094,18.8125 Q33.8031,18.1875 35.0375,18.1875 Q35.7719,18.1875 36.4125,18.3594 Q37.0688,18.5156 37.6156,18.875 Z " fill="#000000"/><text fill="#000000" font-family="sans-serif" font-size="14" lengthAdjust="spacing" textLength="62" x="51.15" y="28.7285">Utilisateur</text><line style="stroke:#181818;stroke-width:0.5;" x1="10.5" x2="125.5" y1="39" y2="39"/><ellipse cx="20.5" cy="53.3047" fill="none" rx="3" ry="3" style="stroke:#038048;stroke-width:1.0;"/><text fill="#000000" font-family="sans-serif" font-size="14" lengthAdjust="spacing" textLength="34" x="29.5" y="57.5332">id: int</text><ellipse cx="20.5" cy="70.9141" fill="none" rx="3" ry="3" style="stroke:#038048;stroke-width:1.0;"/><text fill="#000000" font-family="sans-serif" font-size="14" lengthAdjust="spacing" textLength="72" x="29.5" y="75.1426">nom: String</text><ellipse cx="20.5" cy="88.5234" fill="none" rx="3" ry="3" style="stroke:#038048;stroke-width:1.0;"/><text fill="#000000" font-family="sans-serif" font-size="14" lengthAdjust="spacing" textLength="78" x="29.5" y="92.752">email: String</text><ellipse cx="20.5" cy="106.1328" fill="none" rx="3" ry="3" style="stroke:#038048;stroke-width:1.0;"/><text fill="#000000" font-family="sans-serif" font-size="14" lengthAdjust="spacing" textLength="69" x="29.5" y="110.3613">r&#244;le: String</text><line style="stroke:#181818;stroke-width:0.5;" x1="10.5" x2="125.5" y1="117.4375" y2="117.4375"/><ellipse cx="20.5" cy="131.7422" fill="#84BE84" rx="3" ry="3" style="stroke:#038048;stroke-width:1.0;"/><text fill="#000000" font-family="sans-serif" font-size="14" lengthAdjust="spacing" textLength="91" x="29.5" y="135.9707">s'authentifier()</text></g><!--class Produit--><g id="elem_Produit"><rect codeLine="9" fill="#F1F1F1" height="118.4375" id="Produit" rx="2.5" ry="2.5" style="stroke:#181818;stroke-width:0.5;" width="140" x="164" y="203"/><ellipse cx="207.35" cy="219" fill="#ADD1B2" rx="11" ry="11" style="stroke:#181818;stroke-width:1.0;"/><path d="M210.1156,214.875 Q210.2719,214.6563 210.4594,214.5469 Q210.6469,214.4375 210.8656,214.4375 Q211.2406,214.4375 211.475,214.7031 Q211.7094,214.9531 211.7094,215.5625 L211.7094,217.0156 Q211.7094,217.625 211.475,217.8906 Q211.2406,218.1563 210.8656,218.1563 Q210.5219,218.1563 210.3188,217.9531 Q210.1156,217.7656 210.0063,217.25 Q209.9594,216.8906 209.7719,216.7031 Q209.4438,216.3281 208.8344,216.1094 Q208.225,215.8906 207.6,215.8906 Q206.8344,215.8906 206.1938,216.2188 Q205.5688,216.5469 205.0688,217.2969 Q204.5844,218.0469 204.5844,219.0781 L204.5844,220.1719 Q204.5844,221.4063 205.475,222.2344 Q206.3656,223.0469 207.9594,223.0469 Q208.8969,223.0469 209.5531,222.7969 Q209.9438,222.6406 210.3656,222.2031 Q210.6313,221.9375 210.7719,221.8594 Q210.9281,221.7813 211.1313,221.7813 Q211.4594,221.7813 211.7094,222.0469 Q211.975,222.2969 211.975,222.6406 Q211.975,222.9844 211.6313,223.3906 Q211.1313,223.9688 210.3344,224.2969 Q209.2563,224.75 207.9594,224.75 Q206.4438,224.75 205.2406,224.125 Q204.2563,223.625 203.5688,222.5625 Q202.8813,221.4844 202.8813,220.2031 L202.8813,219.0469 Q202.8813,217.7188 203.4906,216.5781 Q204.1156,215.4219 205.2094,214.8125 Q206.3031,214.1875 207.5375,214.1875 Q208.2719,214.1875 208.9125,214.3594 Q209.5688,214.5156 210.1156,214.875 Z " fill="#000000"/><text fill="#000000" font-family="sans-serif" font-size="14" lengthAdjust="spacing" textLength="45" x="227.65" y="224.7285">Produit</text><line style="stroke:#181818;stroke-width:0.5;" x1="165" x2="303" y1="235" y2="235"/><ellipse cx="175" cy="249.3047" fill="none" rx="3" ry="3" style="stroke:#038048;stroke-width:1.0;"/><text fill="#000000" font-family="sans-serif" font-size="14" lengthAdjust="spacing" textLength="34" x="184" y="253.5332">id: int</text><ellipse cx="175" cy="266.9141" fill="none" rx="3" ry="3" style="stroke:#038048;stroke-width:1.0;"/><text fill="#000000" font-family="sans-serif" font-size="14" lengthAdjust="spacing" textLength="72" x="184" y="271.1426">nom: String</text><ellipse cx="175" cy="284.5234" fill="none" rx="3" ry="3" style="stroke:#038048;stroke-width:1.0;"/><text fill="#000000" font-family="sans-serif" font-size="14" lengthAdjust="spacing" textLength="73" x="184" y="288.752">prix: double</text><ellipse cx="175" cy="302.1328" fill="none" rx="3" ry="3" style="stroke:#038048;stroke-width:1.0;"/><text fill="#000000" font-family="sans-serif" font-size="14" lengthAdjust="spacing" textLength="114" x="184" y="306.3613">description: String</text><line style="stroke:#181818;stroke-width:0.5;" x1="165" x2="303" y1="313.4375" y2="313.4375"/></g><!--class Commerce--><g id="elem_Commerce"><rect codeLine="16" fill="#F1F1F1" height="100.8281" id="Commerce" rx="2.5" ry="2.5" style="stroke:#181818;stroke-width:0.5;" width="122" x="173" y="24.5"/><ellipse cx="197.9" cy="40.5" fill="#ADD1B2" rx="11" ry="11" style="stroke:#181818;stroke-width:1.0;"/><path d="M200.6656,36.375 Q200.8219,36.1563 201.0094,36.0469 Q201.1969,35.9375 201.4156,35.9375 Q201.7906,35.9375 202.025,36.2031 Q202.2594,36.4531 202.2594,37.0625 L202.2594,38.5156 Q202.2594,39.125 202.025,39.3906 Q201.7906,39.6563 201.4156,39.6563 Q201.0719,39.6563 200.8688,39.4531 Q200.6656,39.2656 200.5563,38.75 Q200.5094,38.3906 200.3219,38.2031 Q199.9938,37.8281 199.3844,37.6094 Q198.775,37.3906 198.15,37.3906 Q197.3844,37.3906 196.7438,37.7188 Q196.1188,38.0469 195.6188,38.7969 Q195.1344,39.5469 195.1344,40.5781 L195.1344,41.6719 Q195.1344,42.9063 196.025,43.7344 Q196.9156,44.5469 198.5094,44.5469 Q199.4469,44.5469 200.1031,44.2969 Q200.4938,44.1406 200.9156,43.7031 Q201.1813,43.4375 201.3219,43.3594 Q201.4781,43.2813 201.6813,43.2813 Q202.0094,43.2813 202.2594,43.5469 Q202.525,43.7969 202.525,44.1406 Q202.525,44.4844 202.1813,44.8906 Q201.6813,45.4688 200.8844,45.7969 Q199.8063,46.25 198.5094,46.25 Q196.9938,46.25 195.7906,45.625 Q194.8063,45.125 194.1188,44.0625 Q193.4313,42.9844 193.4313,41.7031 L193.4313,40.5469 Q193.4313,39.2188 194.0406,38.0781 Q194.6656,36.9219 195.7594,36.3125 Q196.8531,35.6875 198.0875,35.6875 Q198.8219,35.6875 199.4625,35.8594 Q200.1188,36.0156 200.6656,36.375 Z " fill="#000000"/><text fill="#000000" font-family="sans-serif" font-size="14" lengthAdjust="spacing" textLength="68" x="214.1" y="46.2285">Commerce</text><line style="stroke:#181818;stroke-width:0.5;" x1="174" x2="294" y1="56.5" y2="56.5"/><ellipse cx="184" cy="70.8047" fill="none" rx="3" ry="3" style="stroke:#038048;stroke-width:1.0;"/><text fill="#000000" font-family="sans-serif" font-size="14" lengthAdjust="spacing" textLength="34" x="193" y="75.0332">id: int</text><ellipse cx="184" cy="88.4141" fill="none" rx="3" ry="3" style="stroke:#038048;stroke-width:1.0;"/><text fill="#000000" font-family="sans-serif" font-size="14" lengthAdjust="spacing" textLength="72" x="193" y="92.6426">nom: String</text><ellipse cx="184" cy="106.0234" fill="none" rx="3" ry="3" style="stroke:#038048;stroke-width:1.0;"/><text fill="#000000" font-family="sans-serif" font-size="14" lengthAdjust="spacing" textLength="96" x="193" y="110.252">adresse: String</text><line style="stroke:#181818;stroke-width:0.5;" x1="174" x2="294" y1="117.3281" y2="117.3281"/></g><!--class Statistique--><g id="elem_Statistique"><rect codeLine="22" fill="#F1F1F1" height="118.4375" id="Statistique" rx="2.5" ry="2.5" style="stroke:#181818;stroke-width:0.5;" width="116" x="176" y="381"/><ellipse cx="199.1" cy="397" fill="#ADD1B2" rx="11" ry="11" style="stroke:#181818;stroke-width:1.0;"/><path d="M201.8656,392.875 Q202.0219,392.6563 202.2094,392.5469 Q202.3969,392.4375 202.6156,392.4375 Q202.9906,392.4375 203.225,392.7031 Q203.4594,392.9531 203.4594,393.5625 L203.4594,395.0156 Q203.4594,395.625 203.225,395.8906 Q202.9906,396.1563 202.6156,396.1563 Q202.2719,396.1563 202.0688,395.9531 Q201.8656,395.7656 201.7563,395.25 Q201.7094,394.8906 201.5219,394.7031 Q201.1938,394.3281 200.5844,394.1094 Q199.975,393.8906 199.35,393.8906 Q198.5844,393.8906 197.9438,394.2188 Q197.3188,394.5469 196.8188,395.2969 Q196.3344,396.0469 196.3344,397.0781 L196.3344,398.1719 Q196.3344,399.4063 197.225,400.2344 Q198.1156,401.0469 199.7094,401.0469 Q200.6469,401.0469 201.3031,400.7969 Q201.6938,400.6406 202.1156,400.2031 Q202.3813,399.9375 202.5219,399.8594 Q202.6781,399.7813 202.8813,399.7813 Q203.2094,399.7813 203.4594,400.0469 Q203.725,400.2969 203.725,400.6406 Q203.725,400.9844 203.3813,401.3906 Q202.8813,401.9688 202.0844,402.2969 Q201.0063,402.75 199.7094,402.75 Q198.1938,402.75 196.9906,402.125 Q196.0063,401.625 195.3188,400.5625 Q194.6313,399.4844 194.6313,398.2031 L194.6313,397.0469 Q194.6313,395.7188 195.2406,394.5781 Q195.8656,393.4219 196.9594,392.8125 Q198.0531,392.1875 199.2875,392.1875 Q200.0219,392.1875 200.6625,392.3594 Q201.3188,392.5156 201.8656,392.875 Z " fill="#000000"/><text fill="#000000" font-family="sans-serif" font-size="14" lengthAdjust="spacing" textLength="66" x="214.9" y="402.7285">Statistique</text><line style="stroke:#181818;stroke-width:0.5;" x1="177" x2="291" y1="413" y2="413"/><ellipse cx="187" cy="427.3047" fill="none" rx="3" ry="3" style="stroke:#038048;stroke-width:1.0;"/><text fill="#000000" font-family="sans-serif" font-size="14" lengthAdjust="spacing" textLength="34" x="196" y="431.5332">id: int</text><ellipse cx="187" cy="444.9141" fill="none" rx="3" ry="3" style="stroke:#038048;stroke-width:1.0;"/><text fill="#000000" font-family="sans-serif" font-size="14" lengthAdjust="spacing" textLength="72" x="196" y="449.1426">type: String</text><ellipse cx="187" cy="462.5234" fill="none" rx="3" ry="3" style="stroke:#038048;stroke-width:1.0;"/><text fill="#000000" font-family="sans-serif" font-size="14" lengthAdjust="spacing" textLength="90" x="196" y="466.752">valeur: double</text><ellipse cx="187" cy="480.1328" fill="none" rx="3" ry="3" style="stroke:#038048;stroke-width:1.0;"/><text fill="#000000" font-family="sans-serif" font-size="14" lengthAdjust="spacing" textLength="66" x="196" y="484.3613">date: Date</text><line style="stroke:#181818;stroke-width:0.5;" x1="177" x2="291" y1="491.4375" y2="491.4375"/></g><!--class Rapport--><g id="elem_Rapport"><rect codeLine="29" fill="#F1F1F1" height="100.8281" id="Rapport" rx="2.5" ry="2.5" style="stroke:#181818;stroke-width:0.5;" width="122" x="7" y="211.5"/><ellipse cx="39.55" cy="227.5" fill="#ADD1B2" rx="11" ry="11" style="stroke:#181818;stroke-width:1.0;"/><path d="M42.3156,223.375 Q42.4719,223.1563 42.6594,223.0469 Q42.8469,222.9375 43.0656,222.9375 Q43.4406,222.9375 43.675,223.2031 Q43.9094,223.4531 43.9094,224.0625 L43.9094,225.5156 Q43.9094,226.125 43.675,226.3906 Q43.4406,226.6563 43.0656,226.6563 Q42.7219,226.6563 42.5188,226.4531 Q42.3156,226.2656 42.2063,225.75 Q42.1594,225.3906 41.9719,225.2031 Q41.6438,224.8281 41.0344,224.6094 Q40.425,224.3906 39.8,224.3906 Q39.0344,224.3906 38.3938,224.7188 Q37.7688,225.0469 37.2688,225.7969 Q36.7844,226.5469 36.7844,227.5781 L36.7844,228.6719 Q36.7844,229.9063 37.675,230.7344 Q38.5656,231.5469 40.1594,231.5469 Q41.0969,231.5469 41.7531,231.2969 Q42.1438,231.1406 42.5656,230.7031 Q42.8313,230.4375 42.9719,230.3594 Q43.1281,230.2813 43.3313,230.2813 Q43.6594,230.2813 43.9094,230.5469 Q44.175,230.7969 44.175,231.1406 Q44.175,231.4844 43.8313,231.8906 Q43.3313,232.4688 42.5344,232.7969 Q41.4563,233.25 40.1594,233.25 Q38.6438,233.25 37.4406,232.625 Q36.4563,232.125 35.7688,231.0625 Q35.0813,229.9844 35.0813,228.7031 L35.0813,227.5469 Q35.0813,226.2188 35.6906,225.0781 Q36.3156,223.9219 37.4094,223.3125 Q38.5031,222.6875 39.7375,222.6875 Q40.4719,222.6875 41.1125,222.8594 Q41.7688,223.0156 42.3156,223.375 Z " fill="#000000"/><text fill="#000000" font-family="sans-serif" font-size="14" lengthAdjust="spacing" textLength="51" x="57.45" y="233.2285">Rapport</text><line style="stroke:#181818;stroke-width:0.5;" x1="8" x2="128" y1="243.5" y2="243.5"/><ellipse cx="18" cy="257.8047" fill="none" rx="3" ry="3" style="stroke:#038048;stroke-width:1.0;"/><text fill="#000000" font-family="sans-serif" font-size="14" lengthAdjust="spacing" textLength="34" x="27" y="262.0332">id: int</text><ellipse cx="18" cy="275.4141" fill="none" rx="3" ry="3" style="stroke:#038048;stroke-width:1.0;"/><text fill="#000000" font-family="sans-serif" font-size="14" lengthAdjust="spacing" textLength="66" x="27" y="279.6426">date: Date</text><ellipse cx="18" cy="293.0234" fill="none" rx="3" ry="3" style="stroke:#038048;stroke-width:1.0;"/><text fill="#000000" font-family="sans-serif" font-size="14" lengthAdjust="spacing" textLength="96" x="27" y="297.252">contenu: String</text><line style="stroke:#181818;stroke-width:0.5;" x1="8" x2="128" y1="304.3281" y2="304.3281"/></g><!--class ModeleIA--><g id="elem_ModeleIA"><rect codeLine="35" fill="#F1F1F1" height="65.6094" id="ModeleIA" rx="2.5" ry="2.5" style="stroke:#181818;stroke-width:0.5;" width="201" x="330.5" y="42"/><ellipse cx="397.75" cy="58" fill="#ADD1B2" rx="11" ry="11" style="stroke:#181818;stroke-width:1.0;"/><path d="M400.5156,53.875 Q400.6719,53.6563 400.8594,53.5469 Q401.0469,53.4375 401.2656,53.4375 Q401.6406,53.4375 401.875,53.7031 Q402.1094,53.9531 402.1094,54.5625 L402.1094,56.0156 Q402.1094,56.625 401.875,56.8906 Q401.6406,57.1563 401.2656,57.1563 Q400.9219,57.1563 400.7188,56.9531 Q400.5156,56.7656 400.4063,56.25 Q400.3594,55.8906 400.1719,55.7031 Q399.8438,55.3281 399.2344,55.1094 Q398.625,54.8906 398,54.8906 Q397.2344,54.8906 396.5938,55.2188 Q395.9688,55.5469 395.4688,56.2969 Q394.9844,57.0469 394.9844,58.0781 L394.9844,59.1719 Q394.9844,60.4063 395.875,61.2344 Q396.7656,62.0469 398.3594,62.0469 Q399.2969,62.0469 399.9531,61.7969 Q400.3438,61.6406 400.7656,61.2031 Q401.0313,60.9375 401.1719,60.8594 Q401.3281,60.7813 401.5313,60.7813 Q401.8594,60.7813 402.1094,61.0469 Q402.375,61.2969 402.375,61.6406 Q402.375,61.9844 402.0313,62.3906 Q401.5313,62.9688 400.7344,63.2969 Q399.6563,63.75 398.3594,63.75 Q396.8438,63.75 395.6406,63.125 Q394.6563,62.625 393.9688,61.5625 Q393.2813,60.4844 393.2813,59.2031 L393.2813,58.0469 Q393.2813,56.7188 393.8906,55.5781 Q394.5156,54.4219 395.6094,53.8125 Q396.7031,53.1875 397.9375,53.1875 Q398.6719,53.1875 399.3125,53.3594 Q399.9688,53.5156 400.5156,53.875 Z " fill="#000000"/><text fill="#000000" font-family="sans-serif" font-size="14" lengthAdjust="spacing" textLength="58" x="418.25" y="63.7285">ModeleIA</text><line style="stroke:#181818;stroke-width:0.5;" x1="331.5" x2="530.5" y1="74" y2="74"/><line style="stroke:#181818;stroke-width:0.5;" x1="331.5" x2="530.5" y1="82" y2="82"/><ellipse cx="341.5" cy="96.3047" fill="#84BE84" rx="3" ry="3" style="stroke:#038048;stroke-width:1.0;"/><text fill="#000000" font-family="sans-serif" font-size="14" lengthAdjust="spacing" textLength="175" x="350.5" y="100.5332">sugg&#233;rer_strat&#233;gie(): String</text></g><!--link Utilisateur to Rapport--><g id="link_Utilisateur_Rapport"><path codeLine="39" d="M68,143.05 C68,165.59 68,190.32 68,211.29 " fill="none" id="Utilisateur-Rapport" style="stroke:#181818;stroke-width:1.0;"/><text fill="#000000" font-family="sans-serif" font-size="13" lengthAdjust="spacing" textLength="7" x="60.6391" y="164.4035">1</text><text fill="#000000" font-family="sans-serif" font-size="13" lengthAdjust="spacing" textLength="20" x="46.5938" y="200.5658">1..*</text></g><!--link Produit to Statistique--><g id="link_Produit_Statistique"><path codeLine="40" d="M234,321.12 C234,340.34 234,361.72 234,380.94 " fill="none" id="Produit-Statistique" style="stroke:#181818;stroke-width:1.0;"/><text fill="#000000" font-family="sans-serif" font-size="13" lengthAdjust="spacing" textLength="7" x="226.5734" y="342.7901">1</text><text fill="#000000" font-family="sans-serif" font-size="13" lengthAdjust="spacing" textLength="20" x="212.7813" y="370.2569">1..*</text></g><!--link Commerce to Produit--><g id="link_Commerce_Produit"><path codeLine="41" d="M234,125.58 C234,149.34 234,177.95 234,202.75 " fill="none" id="Commerce-Produit" style="stroke:#181818;stroke-width:1.0;"/><text fill="#000000" font-family="sans-serif" font-size="13" lengthAdjust="spacing" textLength="7" x="226.5297" y="146.982">1</text><text fill="#000000" font-family="sans-serif" font-size="13" lengthAdjust="spacing" textLength="20" x="212.7813" y="192.0438">1..*</text></g><!--SRC=[ZL6nJWCn3Dtp5T4jjA1MOhqDmSA0XAYOKKZCOIcN1Dj18CG7TUSFxiU8UjnnrtPeXaH-iP-VdwqtpFfHq2CRWKpwI-boBj3L6eFqGOXjhJT269eUWDQWdqFK_NYOGtncihn247n1eCLIVIjbTmtlARgCSbgpHFXHQnVpiuSUSS2MC0d6CAQEtDUnRO4id4Pk704p7D9in0You5i-pYIVQM_ST-EBWNjAYwcrlYdtF_E3IIdIyU4d-RlOnY0Gyg6yk-Z0m-tLmCAvQRej0Jsna95kso0ibjEwwPAhoqglLkLPhy-hGP0QjZB_dHYXHc_dAN-5lm00]--></g></svg>