<?xml version="1.0" encoding="us-ascii" standalone="no"?><svg xmlns="http://www.w3.org/2000/svg" xmlns:xlink="http://www.w3.org/1999/xlink" contentStyleType="text/css" height="686px" preserveAspectRatio="none" style="width:920px;height:686px;background:#FFFFFF;" version="1.1" viewBox="0 0 920 686" width="920px" zoomAndPan="magnify"><defs/><g><!--cluster Frontend--><g id="cluster_Frontend"><polygon fill="none" points="173,16,183,6,746,6,746,201,736,211,173,211,173,16" style="stroke:#181818;stroke-width:1.0;"/><line style="stroke:#181818;stroke-width:1.0;" x1="736" x2="746" y1="16" y2="6"/><line style="stroke:#181818;stroke-width:1.0;" x1="173" x2="736" y1="16" y2="16"/><line style="stroke:#181818;stroke-width:1.0;" x1="736" x2="736" y1="16" y2="211"/><text fill="#000000" font-family="sans-serif" font-size="14" font-weight="bold" lengthAdjust="spacing" textLength="65" x="423" y="33.5332">Frontend</text></g><!--cluster React.js--><g id="cluster_React.js"><rect fill="none" height="116" rx="2.5" ry="2.5" style="stroke:#181818;stroke-width:1.0;" width="509" x="205" y="63"/><rect fill="none" height="10" style="stroke:#181818;stroke-width:1.0;" width="15" x="694" y="68"/><rect fill="none" height="2" style="stroke:#181818;stroke-width:1.0;" width="4" x="692" y="70"/><rect fill="none" height="2" style="stroke:#181818;stroke-width:1.0;" width="4" x="692" y="74"/><text fill="#000000" font-family="sans-serif" font-size="14" font-weight="bold" lengthAdjust="spacing" textLength="56" x="431.5" y="90.5332">React.js</text></g><!--cluster Backend--><g id="cluster_Backend"><polygon fill="none" points="173,245,183,235,634,235,634,430,624,440,173,440,173,245" style="stroke:#181818;stroke-width:1.0;"/><line style="stroke:#181818;stroke-width:1.0;" x1="624" x2="634" y1="245" y2="235"/><line style="stroke:#181818;stroke-width:1.0;" x1="173" x2="624" y1="245" y2="245"/><line style="stroke:#181818;stroke-width:1.0;" x1="624" x2="624" y1="245" y2="440"/><text fill="#000000" font-family="sans-serif" font-size="14" font-weight="bold" lengthAdjust="spacing" textLength="61" x="369" y="262.5332">Backend</text></g><!--cluster Node.js--><g id="cluster_Node.js"><rect fill="none" height="116" rx="2.5" ry="2.5" style="stroke:#181818;stroke-width:1.0;" width="397" x="205" y="292"/><rect fill="none" height="10" style="stroke:#181818;stroke-width:1.0;" width="15" x="582" y="297"/><rect fill="none" height="2" style="stroke:#181818;stroke-width:1.0;" width="4" x="580" y="299"/><rect fill="none" height="2" style="stroke:#181818;stroke-width:1.0;" width="4" x="580" y="303"/><text fill="#000000" font-family="sans-serif" font-size="14" font-weight="bold" lengthAdjust="spacing" textLength="53" x="377" y="319.5332">Node.js</text></g><!--cluster Base de Donn?es--><g id="cluster_Base de Donn&#233;es"><polygon fill="none" points="16,474,26,464,333,464,333,659,323,669,16,669,16,474" style="stroke:#181818;stroke-width:1.0;"/><line style="stroke:#181818;stroke-width:1.0;" x1="323" x2="333" y1="474" y2="464"/><line style="stroke:#181818;stroke-width:1.0;" x1="16" x2="323" y1="474" y2="474"/><line style="stroke:#181818;stroke-width:1.0;" x1="323" x2="323" y1="474" y2="669"/><text fill="#000000" font-family="sans-serif" font-size="14" font-weight="bold" lengthAdjust="spacing" textLength="124" x="108.5" y="491.5332">Base de Donn&#233;es</text></g><!--cluster MySQL--><g id="cluster_MySQL"><rect fill="none" height="116" rx="2.5" ry="2.5" style="stroke:#181818;stroke-width:1.0;" width="253" x="48" y="521"/><rect fill="none" height="10" style="stroke:#181818;stroke-width:1.0;" width="15" x="281" y="526"/><rect fill="none" height="2" style="stroke:#181818;stroke-width:1.0;" width="4" x="279" y="528"/><rect fill="none" height="2" style="stroke:#181818;stroke-width:1.0;" width="4" x="279" y="532"/><text fill="#000000" font-family="sans-serif" font-size="14" font-weight="bold" lengthAdjust="spacing" textLength="48" x="150.5" y="548.5332">MySQL</text></g><!--cluster Mod?le IA--><g id="cluster_Mod&#232;le IA"><polygon fill="none" points="357,474,367,464,903,464,903,659,893,669,357,669,357,474" style="stroke:#181818;stroke-width:1.0;"/><line style="stroke:#181818;stroke-width:1.0;" x1="893" x2="903" y1="474" y2="464"/><line style="stroke:#181818;stroke-width:1.0;" x1="357" x2="893" y1="474" y2="474"/><line style="stroke:#181818;stroke-width:1.0;" x1="893" x2="893" y1="474" y2="669"/><text fill="#000000" font-family="sans-serif" font-size="14" font-weight="bold" lengthAdjust="spacing" textLength="70" x="591" y="491.5332">Mod&#232;le IA</text></g><!--cluster Python--><g id="cluster_Python"><rect fill="none" height="116" rx="2.5" ry="2.5" style="stroke:#181818;stroke-width:1.0;" width="482" x="389" y="521"/><rect fill="none" height="10" style="stroke:#181818;stroke-width:1.0;" width="15" x="851" y="526"/><rect fill="none" height="2" style="stroke:#181818;stroke-width:1.0;" width="4" x="849" y="528"/><rect fill="none" height="2" style="stroke:#181818;stroke-width:1.0;" width="4" x="849" y="532"/><text fill="#000000" font-family="sans-serif" font-size="14" font-weight="bold" lengthAdjust="spacing" textLength="48" x="606" y="548.5332">Python</text></g><!--entity Interface Utilisateur--><g id="elem_Interface Utilisateur"><rect fill="#F1F1F1" height="47.6094" rx="2.5" ry="2.5" style="stroke:#181818;stroke-width:0.5;" width="161" x="528.5" y="107"/><rect fill="#F1F1F1" height="10" style="stroke:#181818;stroke-width:0.5;" width="15" x="669.5" y="112"/><rect fill="#F1F1F1" height="2" style="stroke:#181818;stroke-width:0.5;" width="4" x="667.5" y="114"/><rect fill="#F1F1F1" height="2" style="stroke:#181818;stroke-width:0.5;" width="4" x="667.5" y="118"/><text fill="#000000" font-family="sans-serif" font-size="14" lengthAdjust="spacing" textLength="121" x="543.5" y="141.5332">Interface Utilisateur</text></g><!--entity Graphiques et Tableaux de bord--><g id="elem_Graphiques et Tableaux de bord"><rect fill="#F1F1F1" height="47.6094" rx="2.5" ry="2.5" style="stroke:#181818;stroke-width:0.5;" width="245" x="248.5" y="107"/><rect fill="#F1F1F1" height="10" style="stroke:#181818;stroke-width:0.5;" width="15" x="473.5" y="112"/><rect fill="#F1F1F1" height="2" style="stroke:#181818;stroke-width:0.5;" width="4" x="471.5" y="114"/><rect fill="#F1F1F1" height="2" style="stroke:#181818;stroke-width:0.5;" width="4" x="471.5" y="118"/><text fill="#000000" font-family="sans-serif" font-size="14" lengthAdjust="spacing" textLength="205" x="263.5" y="141.5332">Graphiques et Tableaux de bord</text></g><!--entity Gestion des API--><g id="elem_Gestion des API"><rect fill="#F1F1F1" height="47.6094" rx="2.5" ry="2.5" style="stroke:#181818;stroke-width:0.5;" width="141" x="436.5" y="336"/><rect fill="#F1F1F1" height="10" style="stroke:#181818;stroke-width:0.5;" width="15" x="557.5" y="341"/><rect fill="#F1F1F1" height="2" style="stroke:#181818;stroke-width:0.5;" width="4" x="555.5" y="343"/><rect fill="#F1F1F1" height="2" style="stroke:#181818;stroke-width:0.5;" width="4" x="555.5" y="347"/><text fill="#000000" font-family="sans-serif" font-size="14" lengthAdjust="spacing" textLength="101" x="451.5" y="370.5332">Gestion des API</text></g><!--entity Logique d'affaires--><g id="elem_Logique d'affaires"><rect fill="#F1F1F1" height="47.6094" rx="2.5" ry="2.5" style="stroke:#181818;stroke-width:0.5;" width="153" x="248.5" y="336"/><rect fill="#F1F1F1" height="10" style="stroke:#181818;stroke-width:0.5;" width="15" x="381.5" y="341"/><rect fill="#F1F1F1" height="2" style="stroke:#181818;stroke-width:0.5;" width="4" x="379.5" y="343"/><rect fill="#F1F1F1" height="2" style="stroke:#181818;stroke-width:0.5;" width="4" x="379.5" y="347"/><text fill="#000000" font-family="sans-serif" font-size="14" lengthAdjust="spacing" textLength="113" x="263.5" y="370.5332">Logique d'affaires</text></g><!--entity Stockage des donn?es--><g id="elem_Stockage des donn&#233;es"><rect fill="#F1F1F1" height="47.6094" rx="2.5" ry="2.5" style="stroke:#181818;stroke-width:0.5;" width="185" x="91.5" y="565"/><rect fill="#F1F1F1" height="10" style="stroke:#181818;stroke-width:0.5;" width="15" x="256.5" y="570"/><rect fill="#F1F1F1" height="2" style="stroke:#181818;stroke-width:0.5;" width="4" x="254.5" y="572"/><rect fill="#F1F1F1" height="2" style="stroke:#181818;stroke-width:0.5;" width="4" x="254.5" y="576"/><text fill="#000000" font-family="sans-serif" font-size="14" lengthAdjust="spacing" textLength="145" x="106.5" y="599.5332">Stockage des donn&#233;es</text></g><!--entity Analyse des donn?es--><g id="elem_Analyse des donn&#233;es"><rect fill="#F1F1F1" height="47.6094" rx="2.5" ry="2.5" style="stroke:#181818;stroke-width:0.5;" width="176" x="671" y="565"/><rect fill="#F1F1F1" height="10" style="stroke:#181818;stroke-width:0.5;" width="15" x="827" y="570"/><rect fill="#F1F1F1" height="2" style="stroke:#181818;stroke-width:0.5;" width="4" x="825" y="572"/><rect fill="#F1F1F1" height="2" style="stroke:#181818;stroke-width:0.5;" width="4" x="825" y="576"/><text fill="#000000" font-family="sans-serif" font-size="14" lengthAdjust="spacing" textLength="136" x="686" y="599.5332">Analyse des donn&#233;es</text></g><!--entity Suggestions de strat?gies--><g id="elem_Suggestions de strat&#233;gies"><rect fill="#F1F1F1" height="47.6094" rx="2.5" ry="2.5" style="stroke:#181818;stroke-width:0.5;" width="204" x="432" y="565"/><rect fill="#F1F1F1" height="10" style="stroke:#181818;stroke-width:0.5;" width="15" x="616" y="570"/><rect fill="#F1F1F1" height="2" style="stroke:#181818;stroke-width:0.5;" width="4" x="614" y="572"/><rect fill="#F1F1F1" height="2" style="stroke:#181818;stroke-width:0.5;" width="4" x="614" y="576"/><text fill="#000000" font-family="sans-serif" font-size="14" lengthAdjust="spacing" textLength="164" x="447" y="599.5332">Suggestions de strat&#233;gies</text></g><!--link React.js to Node.js--><g id="link_React.js_Node.js"><path d="M213,179.8125 C213,180.5283 213,181.2495 213,181.9758 C213,183.4283 213,184.9013 213,186.3932 C213,192.3607 213,198.6306 213,205.102 C213,218.0448 213,231.7934 213,245.5413 C213,259.2891 213,273.036 213,285.9753 C213,287.5927 213,289.1975 213,290.7881 C213,291.1858 213,285.5826 213,285.9784 " fill="none" id="React.js-to-Node.js" style="stroke:#181818;stroke-width:1.0;"/><polygon fill="#181818" points="213,291.9784,217,282.9784,213,286.9784,209,282.9784,213,291.9784" style="stroke:#181818;stroke-width:1.0;"/></g><!--link Node.js to MySQL--><g id="link_Node.js_MySQL"><path d="M204.9306,363.8556 C204.8173,363.8978 204.703,363.9406 204.5875,363.9838 C204.3567,364.0702 204.1217,364.1585 203.8826,364.2487 C203.4044,364.429 202.9097,364.6168 202.3991,364.8122 C200.357,365.5935 198.061,366.4948 195.548,367.5159 C185.4959,371.6006 171.9719,377.6038 157.3338,385.5225 C128.0575,401.36 94.325,424.86 75,456 C67.3075,468.3925 62.2506,482.68 58.998,497.1792 C57.3716,504.4288 56.1964,511.7314 55.3682,518.8764 C55.3165,519.323 55.2661,519.7689 55.217,520.2142 C55.1925,520.4369 55.8089,514.6936 55.7851,514.916 " fill="none" id="Node.js-to-MySQL" style="stroke:#181818;stroke-width:1.0;"/><polygon fill="#181818" points="55.1444,520.8816,60.0825,512.3602,55.6783,515.9102,52.1283,511.506,55.1444,520.8816" style="stroke:#181818;stroke-width:1.0;"/></g><!--link Node.js to Python--><g id="link_Node.js_Python"><path d="M213.0685,408.0449 C213.0931,408.1936 213.118,408.3423 213.1432,408.4911 C213.1936,408.7886 213.2452,409.0862 213.2981,409.3838 C214.1441,414.1467 215.3087,418.9266 216.8839,423.5492 C220.0344,432.7944 224.8275,441.41 232,448 C252.14,466.5 269.23,442.49 293,456 C324.955,474.17 350.6475,506.43 368.5013,534.5088 C372.9647,541.5284 376.9382,548.2868 380.3972,554.4983 C382.1267,557.6041 383.7275,560.5732 385.1966,563.3699 C385.9312,564.7682 386.6328,566.1234 387.3011,567.4311 C387.6353,568.085 387.9611,568.7269 388.2786,569.3564 C388.4373,569.6712 388.594,569.9828 388.7485,570.2913 C388.8258,570.4455 386.222,565.231 386.2982,565.3836 " fill="none" id="Node.js-to-Python" style="stroke:#181818;stroke-width:1.0;"/><polygon fill="#181818" points="388.9787,570.7516,388.5366,560.9126,386.745,566.2783,381.3793,564.4866,388.9787,570.7516" style="stroke:#181818;stroke-width:1.0;"/></g><!--SRC=[RP1DJiD034RtEOML3Qjo1AGWH1MfHON2Aih2pJZfq62NyKGYGhqFFKSkHlw8AjBTo9_dFTiiXY1yTCAUs8Jm7G1ayd4K9lOGlX1c_lPTXm0WYTi-bsD6yEPjQHKzLIuTigN3uzv-LgH07bvnLn9MNz0ATk9CrtGAJa70lV8UiyCrurERNWgNfDuAjnI5Q1EFgfKKdGZC3UOvMaSwmojrvWTXRiwaCy-wtZwl9ilMItR0WdgD6V_yGwx5D3ybGHpDO9lQxuKdMiHOrZg7TQAgA8QDj1jFlKFVd0jxOKl-Zfx2Od47oNYHD9XUGxtVO5OTHab_0G00]--></g></svg>