<?xml version="1.0" encoding="us-ascii" standalone="no"?><svg xmlns="http://www.w3.org/2000/svg" xmlns:xlink="http://www.w3.org/1999/xlink" contentStyleType="text/css" height="488px" preserveAspectRatio="none" style="width:764px;height:488px;background:#FFFFFF;" version="1.1" viewBox="0 0 764 488" width="764px" zoomAndPan="magnify"><defs/><g><line style="stroke:#181818;stroke-width:0.5;stroke-dasharray:5.0,5.0;" x1="39" x2="39" y1="82.6094" y2="406.125"/><line style="stroke:#181818;stroke-width:0.5;stroke-dasharray:5.0,5.0;" x1="260.5" x2="260.5" y1="82.6094" y2="406.125"/><line style="stroke:#181818;stroke-width:0.5;stroke-dasharray:5.0,5.0;" x1="436" x2="436" y1="82.6094" y2="406.125"/><line style="stroke:#181818;stroke-width:0.5;stroke-dasharray:5.0,5.0;" x1="694.5" x2="694.5" y1="82.6094" y2="406.125"/><text fill="#000000" font-family="sans-serif" font-size="14" lengthAdjust="spacing" textLength="62" x="5" y="79.5332">Utilisateur</text><ellipse cx="39" cy="13.5" fill="#E2E2F0" rx="8" ry="8" style="stroke:#181818;stroke-width:0.5;"/><path d="M39,21.5 L39,48.5 M26,29.5 L52,29.5 M39,48.5 L26,63.5 M39,48.5 L52,63.5 " fill="none" style="stroke:#181818;stroke-width:0.5;"/><text fill="#000000" font-family="sans-serif" font-size="14" lengthAdjust="spacing" textLength="62" x="5" y="419.6582">Utilisateur</text><ellipse cx="39" cy="431.2344" fill="#E2E2F0" rx="8" ry="8" style="stroke:#181818;stroke-width:0.5;"/><path d="M39,439.2344 L39,466.2344 M26,447.2344 L52,447.2344 M39,466.2344 L26,481.2344 M39,466.2344 L52,481.2344 " fill="none" style="stroke:#181818;stroke-width:0.5;"/><rect fill="#E2E2F0" height="31.6094" rx="2.5" ry="2.5" style="stroke:#181818;stroke-width:0.5;" width="135" x="193.5" y="50"/><text fill="#000000" font-family="sans-serif" font-size="14" lengthAdjust="spacing" textLength="121" x="200.5" y="71.5332">Interface Utilisateur</text><rect fill="#E2E2F0" height="31.6094" rx="2.5" ry="2.5" style="stroke:#181818;stroke-width:0.5;" width="135" x="193.5" y="405.125"/><text fill="#000000" font-family="sans-serif" font-size="14" lengthAdjust="spacing" textLength="121" x="200.5" y="426.6582">Interface Utilisateur</text><rect fill="#E2E2F0" height="31.6094" rx="2.5" ry="2.5" style="stroke:#181818;stroke-width:0.5;" width="68" x="402" y="50"/><text fill="#000000" font-family="sans-serif" font-size="14" lengthAdjust="spacing" textLength="54" x="409" y="71.5332">Syst&#232;me</text><rect fill="#E2E2F0" height="31.6094" rx="2.5" ry="2.5" style="stroke:#181818;stroke-width:0.5;" width="68" x="402" y="405.125"/><text fill="#000000" font-family="sans-serif" font-size="14" lengthAdjust="spacing" textLength="54" x="409" y="426.6582">Syst&#232;me</text><rect fill="#E2E2F0" height="31.6094" rx="2.5" ry="2.5" style="stroke:#181818;stroke-width:0.5;" width="127" x="631.5" y="50"/><text fill="#000000" font-family="sans-serif" font-size="14" lengthAdjust="spacing" textLength="113" x="638.5" y="71.5332">Base de Donn&#233;es</text><rect fill="#E2E2F0" height="31.6094" rx="2.5" ry="2.5" style="stroke:#181818;stroke-width:0.5;" width="127" x="631.5" y="405.125"/><text fill="#000000" font-family="sans-serif" font-size="14" lengthAdjust="spacing" textLength="113" x="638.5" y="426.6582">Base de Donn&#233;es</text><polygon fill="#181818" points="249,110.9609,259,114.9609,249,118.9609,253,114.9609" style="stroke:#181818;stroke-width:1.0;"/><line style="stroke:#181818;stroke-width:1.0;" x1="39" x2="255" y1="114.9609" y2="114.9609"/><text fill="#000000" font-family="sans-serif" font-size="13" lengthAdjust="spacing" textLength="77" x="46" y="110.1045">Se connecter</text><polygon fill="#181818" points="424,141.3125,434,145.3125,424,149.3125,428,145.3125" style="stroke:#181818;stroke-width:1.0;"/><line style="stroke:#181818;stroke-width:1.0;" x1="261" x2="430" y1="145.3125" y2="145.3125"/><text fill="#000000" font-family="sans-serif" font-size="13" lengthAdjust="spacing" textLength="130" x="268" y="140.4561">Authentifier l'utilisateur</text><polygon fill="#181818" points="683,171.6641,693,175.6641,683,179.6641,687,175.6641" style="stroke:#181818;stroke-width:1.0;"/><line style="stroke:#181818;stroke-width:1.0;" x1="436" x2="689" y1="175.6641" y2="175.6641"/><text fill="#000000" font-family="sans-serif" font-size="13" lengthAdjust="spacing" textLength="235" x="443" y="170.8076">V&#233;rifier les informations d'authentification</text><polygon fill="#181818" points="447,202.0156,437,206.0156,447,210.0156,443,206.0156" style="stroke:#181818;stroke-width:1.0;"/><line style="stroke:#181818;stroke-width:1.0;stroke-dasharray:2.0,2.0;" x1="441" x2="694" y1="206.0156" y2="206.0156"/><text fill="#000000" font-family="sans-serif" font-size="13" lengthAdjust="spacing" textLength="120" x="453" y="201.1592">Informations v&#233;rifi&#233;es</text><polygon fill="#181818" points="249,232.3672,259,236.3672,249,240.3672,253,236.3672" style="stroke:#181818;stroke-width:1.0;"/><line style="stroke:#181818;stroke-width:1.0;" x1="39" x2="255" y1="236.3672" y2="236.3672"/><text fill="#000000" font-family="sans-serif" font-size="13" lengthAdjust="spacing" textLength="198" x="46" y="231.5107">S&#233;lectionner un produit/commerce</text><polygon fill="#181818" points="424,262.7188,434,266.7188,424,270.7188,428,266.7188" style="stroke:#181818;stroke-width:1.0;"/><line style="stroke:#181818;stroke-width:1.0;" x1="261" x2="430" y1="266.7188" y2="266.7188"/><text fill="#000000" font-family="sans-serif" font-size="13" lengthAdjust="spacing" textLength="151" x="268" y="261.8623">Demander les statistiques</text><polygon fill="#181818" points="683,293.0703,693,297.0703,683,301.0703,687,297.0703" style="stroke:#181818;stroke-width:1.0;"/><line style="stroke:#181818;stroke-width:1.0;" x1="436" x2="689" y1="297.0703" y2="297.0703"/><text fill="#000000" font-family="sans-serif" font-size="13" lengthAdjust="spacing" textLength="204" x="443" y="292.2139">R&#233;cup&#233;rer les donn&#233;es statistiques</text><polygon fill="#181818" points="447,323.4219,437,327.4219,447,331.4219,443,327.4219" style="stroke:#181818;stroke-width:1.0;"/><line style="stroke:#181818;stroke-width:1.0;stroke-dasharray:2.0,2.0;" x1="441" x2="694" y1="327.4219" y2="327.4219"/><text fill="#000000" font-family="sans-serif" font-size="13" lengthAdjust="spacing" textLength="120" x="453" y="322.5654">Envoyer les donn&#233;es</text><polygon fill="#181818" points="272,353.7734,262,357.7734,272,361.7734,268,357.7734" style="stroke:#181818;stroke-width:1.0;"/><line style="stroke:#181818;stroke-width:1.0;" x1="266" x2="435" y1="357.7734" y2="357.7734"/><text fill="#000000" font-family="sans-serif" font-size="13" lengthAdjust="spacing" textLength="135" x="278" y="352.917">Afficher les statistiques</text><polygon fill="#181818" points="50,384.125,40,388.125,50,392.125,46,388.125" style="stroke:#181818;stroke-width:1.0;"/><line style="stroke:#181818;stroke-width:1.0;stroke-dasharray:2.0,2.0;" x1="44" x2="260" y1="388.125" y2="388.125"/><text fill="#000000" font-family="sans-serif" font-size="13" lengthAdjust="spacing" textLength="124" x="56" y="383.2686">Statistiques affich&#233;es</text><!--SRC=[RP2nRiCW48PtdkAK9LFKtKEbMExWjP6x8tnMJZBWmX4fRrG_1ozMiAqMMnc1x_xxVgHYww1Z6ibBnk3491sJeaaQXbDh6DqW5PR82QI7hjsJjwVd-ADnUSm7r7kWbXwXHsYiCN56lu1DBKIH39Vt55p13K4b35NQBhesNw-H5Lm3tz4m3OGEndCep5SamqrTmLUStKQX1pA3TLeoMUEXFyk_5BNSYQQ6Ix6bBV77cfIbNzl6UKogb8qT10EJitqWVbDMQtGA3nKQrDBqcvZdjCKpVOUKlc_m6MSLfhHyG_ljv_Op1_CFyx3Fmu0eWhFmTKYzxwy4icY6_akcUWK0SXdDeRy0]--></g></svg>